<svg width="27" height="27" viewBox="0 0 37 37" fill="none" xmlns="http://www.w3.org/2000/svg">
<path d="M37 8.12195C36.9999 8.56403 36.8248 8.99071 36.5079 9.32106C36.1909 9.65142 35.7542 9.86247 35.2805 9.9142L35.0526 9.92683H33.4071L31.0099 32.5239C30.8794 33.75 30.2615 34.8874 29.2763 35.7147C28.2912 36.542 27.0093 37.0001 25.6799 37H11.3201C9.99068 37.0001 8.70877 36.542 7.72365 35.7147C6.73853 34.8874 6.12063 33.75 5.99011 32.5239L3.59289 9.92683H1.94737C1.43089 9.92683 0.935573 9.73667 0.570371 9.39819C0.205169 9.05971 0 8.60063 0 8.12195C0 7.64327 0.205169 7.18419 0.570371 6.84571C0.935573 6.50723 1.43089 6.31707 1.94737 6.31707H11.6842C11.6842 5.4875 11.8605 4.66606 12.203 3.89963C12.5456 3.13321 13.0476 2.43682 13.6805 1.85023C14.3134 1.26363 15.0648 0.798321 15.8917 0.480859C16.7186 0.163396 17.6049 0 18.5 0C19.3951 0 20.2814 0.163396 21.1083 0.480859C21.9352 0.798321 22.6866 1.26363 23.3195 1.85023C23.9524 2.43682 24.4544 3.13321 24.797 3.89963C25.1395 4.66606 25.3158 5.4875 25.3158 6.31707H35.0526C35.5691 6.31707 36.0644 6.50723 36.4296 6.84571C36.7948 7.18419 37 7.64327 37 8.12195ZM22.8816 13.9878C22.5286 13.9878 22.1877 14.1063 21.9217 14.3213C21.6557 14.5363 21.4827 14.8333 21.4347 15.1574L21.4211 15.3415V27.9756L21.4347 28.1597C21.4828 28.4837 21.6558 28.7806 21.9218 28.9955C22.1878 29.2104 22.5287 29.3289 22.8816 29.3289C23.2344 29.3289 23.5754 29.2104 23.8414 28.9955C24.1073 28.7806 24.2804 28.4837 24.3285 28.1597L24.3421 27.9756V15.3415L24.3285 15.1574C24.2805 14.8333 24.1075 14.5363 23.8415 14.3213C23.5755 14.1063 23.2345 13.9878 22.8816 13.9878ZM14.1184 13.9878C13.7655 13.9878 13.4245 14.1063 13.1585 14.3213C12.8925 14.5363 12.7195 14.8333 12.6715 15.1574L12.6579 15.3415V27.9756L12.6715 28.1597C12.7196 28.4837 12.8927 28.7806 13.1586 28.9955C13.4246 29.2104 13.7656 29.3289 14.1184 29.3289C14.4713 29.3289 14.8122 29.2104 15.0782 28.9955C15.3442 28.7806 15.5172 28.4837 15.5653 28.1597L15.5789 27.9756V15.3415L15.5653 15.1574C15.5173 14.8333 15.3443 14.5363 15.0783 14.3213C14.8123 14.1063 14.4714 13.9878 14.1184 13.9878ZM18.5 3.60976C17.7253 3.60976 16.9823 3.89499 16.4345 4.40271C15.8867 4.91043 15.5789 5.59905 15.5789 6.31707H21.4211C21.4211 5.59905 21.1133 4.91043 20.5655 4.40271C20.0177 3.89499 19.2747 3.60976 18.5 3.60976Z" fill="#E10E0E"/>
</svg>
