<svg width="183" height="58" viewBox="0 0 183 58" fill="none" xmlns="http://www.w3.org/2000/svg">
<path d="M22.0375 57.4C18.5042 57.4 15.8708 56.4 14.1375 54.4C12.4375 52.4 11.5875 49.4333 11.5875 45.5V14.05H19.9375V45.15C19.9375 46.5167 20.0708 47.5833 20.3375 48.35C20.6042 49.1167 21.1708 49.5 22.0375 49.5C22.9042 49.5 23.4708 49.1333 23.7375 48.4C24.0042 47.6333 24.1375 46.55 24.1375 45.15V14.05H32.4875V45.5C32.4875 49.4333 31.6208 52.4 29.8875 54.4C28.1875 56.4 25.5708 57.4 22.0375 57.4ZM35.7691 14.05H47.1191C50.5525 14.05 53.0025 15.1667 54.4691 17.4C55.9358 19.6 56.6691 22.8333 56.6691 27.1C56.6691 31.3667 56.0191 34.5833 54.7191 36.75C53.4191 38.9167 51.0858 40 47.7191 40H44.2191V57H35.7691V14.05ZM44.7191 32.25C45.7525 32.25 46.5025 32.0667 46.9691 31.7C47.4691 31.3 47.7858 30.75 47.9191 30.05C48.0858 29.3167 48.1691 28.2833 48.1691 26.95C48.1691 25.15 47.9691 23.85 47.5691 23.05C47.1691 22.25 46.3691 21.85 45.1691 21.85H44.2191V32.25H44.7191ZM67.6931 57V33.04H58.2531V30.32H79.9731V33.04H70.5731V57H67.6931ZM79.1906 57L89.8306 30.32H92.7106L103.311 57H100.231L97.0306 48.68H85.5106L82.3106 57H79.1906ZM86.5906 45.92H95.9506L91.2706 33.72L86.5906 45.92ZM115.054 57.4C113.72 57.4 112.587 57.3067 111.654 57.12C110.72 56.9333 109.88 56.6667 109.134 56.32C108.387 55.9733 107.574 55.5733 106.694 55.12V52C107.547 52.72 108.694 53.36 110.134 53.92C111.574 54.48 113.254 54.76 115.174 54.76C117.2 54.76 118.667 54.3333 119.574 53.48C120.507 52.6 120.974 51.4933 120.974 50.16C120.974 49.04 120.667 48.1467 120.054 47.48C119.44 46.7867 118.654 46.2267 117.694 45.8C116.734 45.3467 115.72 44.92 114.654 44.52C113.747 44.2 112.84 43.8667 111.934 43.52C111.054 43.1467 110.254 42.6933 109.534 42.16C108.814 41.6 108.24 40.8933 107.814 40.04C107.387 39.16 107.174 38.0667 107.174 36.76C107.174 36.04 107.307 35.28 107.574 34.48C107.867 33.68 108.32 32.9333 108.934 32.24C109.574 31.5467 110.414 30.9867 111.454 30.56C112.52 30.1333 113.814 29.92 115.334 29.92C116.374 29.92 117.254 30 117.974 30.16C118.72 30.2933 119.427 30.5067 120.094 30.8C120.76 31.0667 121.507 31.4 122.334 31.8V34.76C121.64 34.36 120.974 34 120.334 33.68C119.72 33.3333 119.027 33.0667 118.254 32.88C117.507 32.6667 116.587 32.56 115.494 32.56C113.547 32.56 112.16 32.9733 111.334 33.8C110.507 34.6 110.094 35.52 110.094 36.56C110.094 37.6533 110.334 38.52 110.814 39.16C111.32 39.8 112.014 40.3333 112.894 40.76C113.8 41.16 114.84 41.56 116.014 41.96C116.947 42.28 117.88 42.64 118.814 43.04C119.747 43.4133 120.587 43.8933 121.334 44.48C122.107 45.04 122.72 45.76 123.174 46.64C123.654 47.4933 123.894 48.56 123.894 49.84C123.894 51.04 123.627 52.2267 123.094 53.4C122.56 54.5467 121.654 55.5067 120.374 56.28C119.094 57.0267 117.32 57.4 115.054 57.4ZM129.681 57V30.32H132.561V44.36L145.201 30.32H148.881L137.441 42.8L149.801 57H145.801L135.441 44.96L132.561 48.12V57H129.681Z" fill="#3D5A80"/>
<path d="M165.406 29H160.594C159.833 29 159.098 29.2856 158.531 29.8022C157.964 30.3187 157.604 31.03 157.519 31.8H155.094C154.273 31.8 153.486 32.1319 152.906 32.7226C152.326 33.3134 152 34.1146 152 34.95V53.85C152 54.6854 152.326 55.4866 152.906 56.0774C153.486 56.6681 154.273 57 155.094 57H170.906C171.313 57 171.715 56.9185 172.09 56.7602C172.466 56.6019 172.807 56.3699 173.094 56.0774C173.381 55.7849 173.609 55.4376 173.765 55.0555C173.92 54.6733 174 54.2637 174 53.85V34.95C174 34.5363 173.92 34.1267 173.765 33.7445C173.609 33.3624 173.381 33.0151 173.094 32.7226C172.807 32.4301 172.466 32.1981 172.09 32.0398C171.715 31.8815 171.313 31.8 170.906 31.8H168.481C168.396 31.03 168.036 30.3187 167.469 29.8022C166.901 29.2856 166.167 29 165.406 29ZM160.594 31.1H165.406C165.68 31.1 165.942 31.2106 166.135 31.4075C166.329 31.6045 166.438 31.8715 166.438 32.15C166.438 32.4285 166.329 32.6955 166.135 32.8925C165.942 33.0894 165.68 33.2 165.406 33.2H160.594C160.32 33.2 160.058 33.0894 159.865 32.8925C159.671 32.6955 159.562 32.4285 159.562 32.15C159.562 31.8715 159.671 31.6045 159.865 31.4075C160.058 31.2106 160.32 31.1 160.594 31.1ZM163.688 40.55C163.688 40.2715 163.796 40.0045 163.99 39.8075C164.183 39.6106 164.445 39.5 164.719 39.5H169.531C169.805 39.5 170.067 39.6106 170.26 39.8075C170.454 40.0045 170.562 40.2715 170.562 40.55C170.562 40.8285 170.454 41.0955 170.26 41.2925C170.067 41.4894 169.805 41.6 169.531 41.6H164.719C164.445 41.6 164.183 41.4894 163.99 41.2925C163.796 41.0955 163.688 40.8285 163.688 40.55ZM164.719 47.2H169.531C169.805 47.2 170.067 47.3106 170.26 47.5075C170.454 47.7045 170.562 47.9715 170.562 48.25C170.562 48.5285 170.454 48.7955 170.26 48.9925C170.067 49.1894 169.805 49.3 169.531 49.3H164.719C164.445 49.3 164.183 49.1894 163.99 48.9925C163.796 48.7955 163.688 48.5285 163.688 48.25C163.688 47.9715 163.796 47.7045 163.99 47.5075C164.183 47.3106 164.445 47.2 164.719 47.2ZM161.322 39.892L158.572 42.692C158.379 42.8886 158.117 42.9991 157.844 42.9991C157.57 42.9991 157.308 42.8886 157.115 42.692L155.74 41.292C155.639 41.1959 155.557 41.08 155.501 40.9512C155.445 40.8224 155.414 40.6833 155.412 40.5423C155.409 40.4013 155.435 40.2613 155.487 40.1306C155.539 39.9998 155.616 39.8811 155.714 39.7813C155.812 39.6816 155.928 39.603 156.057 39.5502C156.185 39.4974 156.323 39.4715 156.461 39.474C156.6 39.4765 156.736 39.5073 156.863 39.5647C156.989 39.6221 157.103 39.7048 157.198 39.808L157.844 40.466L159.865 38.408C159.959 38.3048 160.073 38.2221 160.2 38.1647C160.326 38.1073 160.463 38.0765 160.601 38.074C160.74 38.0715 160.877 38.0974 161.006 38.1502C161.134 38.203 161.251 38.2816 161.349 38.3813C161.447 38.4811 161.524 38.5998 161.576 38.7306C161.628 38.8613 161.653 39.0013 161.651 39.1423C161.648 39.2833 161.618 39.4224 161.561 39.5512C161.505 39.68 161.424 39.7959 161.322 39.892ZM161.322 46.108C161.516 46.3049 161.624 46.5717 161.624 46.85C161.624 47.1283 161.516 47.3951 161.322 47.592L158.572 50.392C158.379 50.5886 158.117 50.6991 157.844 50.6991C157.57 50.6991 157.308 50.5886 157.115 50.392L155.74 48.992C155.639 48.8959 155.557 48.78 155.501 48.6512C155.445 48.5224 155.414 48.3833 155.412 48.2423C155.409 48.1013 155.435 47.9613 155.487 47.8306C155.539 47.6998 155.616 47.5811 155.714 47.4813C155.812 47.3816 155.928 47.303 156.057 47.2502C156.185 47.1974 156.323 47.1715 156.461 47.174C156.6 47.1765 156.736 47.2073 156.863 47.2647C156.989 47.3221 157.103 47.4048 157.198 47.508L157.844 48.166L159.865 46.108C160.058 45.9114 160.32 45.8009 160.594 45.8009C160.867 45.8009 161.129 45.9114 161.322 46.108Z" fill="#EE6C4D"/>
</svg>
