<svg width="45" height="50" viewBox="0 0 45 50" fill="none" xmlns="http://www.w3.org/2000/svg">
<path d="M32.8844 27.2727L15.5764 27.2727L15.5764 47.7273C15.5764 48.33 15.7587 48.9081 16.0833 49.3343C16.4079 49.7606 16.8482 50 17.3072 50H43.2692C43.7282 50 44.1685 49.7606 44.4931 49.3343C44.8176 48.9081 45 48.33 45 47.7273L45 2.27273C45 1.66996 44.8176 1.09188 44.4931 0.665665C44.1685 0.239445 43.7282 0 43.2692 0H17.3072C16.8482 0 16.4079 0.239445 16.0833 0.665665C15.7587 1.09188 15.5764 1.66996 15.5764 2.27273L15.5764 22.7273L32.8844 22.7273V27.2727Z" fill="white"/>
<path d="M0.506538 26.6065L10.384 39.5781L12.832 36.3636L5.9088 27.2727H15.5764V22.7273H5.9088L12.832 13.6364L10.384 10.4219L0.506538 23.3935C0.182198 23.8196 0 24.3975 0 25C0 25.6025 0.182198 26.1804 0.506538 26.6065Z" fill="white"/>
</svg>
