<svg width="37" height="37" viewBox="0 0 37 37" fill="none" xmlns="http://www.w3.org/2000/svg">
<path d="M18.5 0C14.8411 0 11.2643 1.08501 8.22196 3.11781C5.17965 5.15062 2.80846 8.03992 1.40824 11.4204C0.0080157 14.8008 -0.358346 18.5205 0.355481 22.1092C1.06931 25.6978 2.83126 28.9942 5.41853 31.5815C8.0058 34.1687 11.3022 35.9307 14.8908 36.6445C18.4795 37.3583 22.1992 36.992 25.5796 35.5918C28.9601 34.1915 31.8494 31.8204 33.8822 28.778C35.915 25.7357 37 22.1589 37 18.5C37 13.5935 35.0509 8.88795 31.5815 5.41852C28.1121 1.9491 23.4065 0 18.5 0ZM30.5828 12.2909L15.3897 27.4725L6.41719 18.5C6.11054 18.1933 5.93826 17.7774 5.93826 17.3437C5.93826 16.9101 6.11054 16.4942 6.41719 16.1875C6.72385 15.8808 7.13977 15.7086 7.57344 15.7086C8.00712 15.7086 8.42304 15.8808 8.72969 16.1875L15.4128 22.8706L28.2934 10.0016C28.4453 9.84972 28.6255 9.72927 28.8239 9.6471C29.0223 9.56492 29.235 9.52263 29.4497 9.52263C29.6644 9.52263 29.8771 9.56492 30.0754 9.6471C30.2738 9.72927 30.4541 9.84972 30.6059 10.0016C30.7578 10.1534 30.8782 10.3337 30.9604 10.5321C31.0426 10.7304 31.0849 10.9431 31.0849 11.1578C31.0849 11.3725 31.0426 11.5852 30.9604 11.7836C30.8782 11.982 30.7578 12.1622 30.6059 12.3141L30.5828 12.2909Z" fill="#787878"/>
</svg>
